<svg xmlns="http://www.w3.org/2000/svg" width="50" height="50" fill="none"><circle cx="25" cy="25" r="25" fill="#842231"/><g clip-path="url(#a)"><path fill="#FFC107" d="m23 33-7.4-7.5h20a.5.5 0 0 0 0-1h-20l7.4-7.4a.5.5 0 0 0-.6-.7L14 24.7a.5.5 0 0 0 0 .6l8.3 8.3a.5.5 0 0 0 .6-.7Z"/><path fill="#fff" d="m14 25 .1-.3 8.3-8.3a.5.5 0 0 1 .6.7L15.1 25l8 8a.5.5 0 0 1-.7.6L14 25.3 14 25Z"/><path fill="#fff" d="M14 25c0-.3.2-.5.5-.5h21a.5.5 0 0 1 0 1h-21a.5.5 0 0 1-.5-.5Z"/></g><defs><clipPath id="a"><path fill="#fff" d="M36 14v22H14V14z"/></clipPath></defs></svg>