<svg xmlns="http://www.w3.org/2000/svg" width="23" height="23" viewBox="0 0 23 23" fill="none"><path fill="#929AA2" fill-rule="evenodd" d="M11.5 22a10.5 10.5 0 1 1 0-21 10.5 10.5 0 0 1 0 21Zm7-5.6c1-1.4 1.6-3 1.6-4.9a8.6 8.6 0 1 0-15.7 5c1-1.5 3.6-2.1 7.1-2.1 3.5 0 6 .6 7 2ZM17.3 18c-.3-1-2.3-1.7-5.7-1.7-3.4 0-5.4.7-5.7 1.7a8.6 8.6 0 0 0 11.4 0Zm-5.7-3.6c-2.1 0-3.8-1.5-3.8-4.8 0-2.2 1.5-3.8 3.8-3.8s3.8 1.8 3.8 4c0 3.1-1.7 4.6-3.8 4.6Zm-2-4.8c0 2.2.9 2.9 2 2.9s2-.7 2-2.7c0-1.2-.8-2.1-2-2.1s-2 .7-2 1.9Z" clip-rule="evenodd"/></svg>