<svg xmlns="http://www.w3.org/2000/svg" width="50" height="50" fill="none"><circle cx="25" cy="25" r="25" fill="#842231"/><g clip-path="url(#a)"><path fill="#FFC107" d="m27 17 7.4 7.5h-20a.5.5 0 0 0 0 1h20L27 32.9a.5.5 0 0 0 .6.7l8.3-8.3v-.6l-8.3-8.3a.5.5 0 0 0-.6.7Z"/><path fill="#fff" d="m36 25-.1.3-8.3 8.3a.5.5 0 0 1-.6-.7l7.9-7.9-8-8a.5.5 0 0 1 .7-.6l8.3 8.3.1.3Z"/><path fill="#fff" d="M36 25c0 .3-.2.5-.5.5h-21a.5.5 0 0 1 0-1h21c.3 0 .5.2.5.5Z"/></g><defs><clipPath id="a"><path fill="#fff" d="M14 36V14h22v22z"/></clipPath></defs></svg>