<svg xmlns="http://www.w3.org/2000/svg" width="20" height="20" fill="none"><path fill="#333" d="M10 5.1A5 5 0 0 0 4.9 10a5 5 0 0 0 5.1 4.9 5 5 0 0 0 5.1-4.9A5 5 0 0 0 10 5.1Zm0 8A3.3 3.3 0 0 1 6.7 10c0-1.7 1.5-3.2 3.3-3.2 1.8 0 3.3 1.5 3.3 3.2 0 1.7-1.5 3.2-3.3 3.2Zm5.3-9.3c-.6 0-1.2.5-1.2 1.1 0 .7.6 1.2 1.2 1.2.7 0 1.2-.5 1.2-1.2a1 1 0 0 0-.3-.8 1.2 1.2 0 0 0-.9-.3ZM20 10V6c-.1-1.4-.5-2.8-1.7-3.9A6.1 6.1 0 0 0 14.1.6L10 .5H5.9c-1.6.1-3 .5-4.2 1.6a5.5 5.5 0 0 0-1.6 4L0 10v4c.1 1.4.5 2.8 1.7 3.9a6.1 6.1 0 0 0 4.2 1.5l4.1.1h4.1c1.6-.1 3-.5 4.2-1.6a5.5 5.5 0 0 0 1.6-4L20 10Zm-2.2 5.6a3 3 0 0 1-.8 1c-.3.4-.6.6-1.1.8-1.3.5-4.4.4-5.9.4s-4.6.1-5.9-.4L3 16.7a3 3 0 0 1-.8-1c-.5-1.3-.4-4.3-.4-5.7 0-1.4-.1-4.4.4-5.6.2-.4.4-.8.8-1 .3-.4.6-.6 1.1-.8 1.3-.5 4.4-.4 5.9-.4s4.6-.1 5.9.4l1.1.7c.4.3.6.7.8 1 .5 1.3.4 4.3.4 5.7 0 1.4.1 4.4-.4 5.6Z"/></svg>