<svg xmlns="http://www.w3.org/2000/svg" width="20" height="19" fill="none"><path fill="#111" d="M17.09 2.76A10.19 10.19 0 0 0 10.04 0C4.55 0 .1 4.22.08 9.41a9 9 0 0 0 1.33 4.71L0 19l5.28-1.3a10.4 10.4 0 0 0 4.76 1.14c5.49 0 9.96-4.23 9.96-9.42a9.1 9.1 0 0 0-2.91-6.66Zm-7.05 14.49a8.63 8.63 0 0 1-4.21-1.1l-.3-.16-3.14.77.84-2.88-.2-.3A7.5 7.5 0 0 1 1.77 9.4c0-4.31 3.71-7.82 8.28-7.82 2.2 0 4.28.82 5.85 2.3a7.57 7.57 0 0 1 2.42 5.53c0 4.32-3.72 7.83-8.28 7.83Z"/><path fill="#111" d="M14.58 11.39c-.25-.12-1.47-.7-1.7-.77-.23-.08-.4-.12-.56.12-.16.23-.64.76-.79.92-.14.16-.29.18-.53.06-.25-.12-1.06-.37-2-1.17A7.18 7.18 0 0 1 7.6 8.92c-.15-.23-.02-.36.1-.48.12-.1.26-.27.38-.41.13-.14.17-.24.25-.4.08-.15.04-.29-.02-.4l-.77-1.75c-.2-.46-.4-.4-.56-.4l-.47-.01a.94.94 0 0 0-.67.3c-.23.23-.87.8-.87 1.95 0 1.16.9 2.28 1.02 2.44.12.15 1.75 2.53 4.25 3.55.6.24 1.06.39 1.42.5.6.17 1.14.15 1.56.09.48-.07 1.48-.57 1.68-1.12.21-.55.21-1.02.15-1.12-.06-.1-.23-.16-.48-.27Z"/></svg>